<svg width="26" height="30" viewBox="0 0 26 30" fill="none" xmlns="http://www.w3.org/2000/svg">
<path d="M24.7399 22.9912C24.2863 24.022 23.7493 24.9706 23.1269 25.8431C22.2789 27.0322 21.5845 27.8553 21.0493 28.3125C20.2197 29.0627 19.3308 29.4469 18.379 29.4688C17.6957 29.4688 16.8717 29.2777 15.9124 28.8898C14.9501 28.5036 14.0656 28.3125 13.257 28.3125C12.4089 28.3125 11.4993 28.5036 10.5263 28.8898C9.55191 29.2777 8.76693 29.4797 8.16676 29.4999C7.25402 29.5379 6.34424 29.1428 5.43611 28.3125C4.8565 27.8153 4.13154 26.9629 3.26303 25.7557C2.33121 24.4663 1.56514 22.9712 0.964967 21.2667C0.322212 19.4256 0 17.6427 0 15.9167C0 13.9396 0.434434 12.2343 1.30459 10.8053C1.98846 9.65752 2.89824 8.75207 4.03691 8.0874C5.17558 7.4227 6.4059 7.08397 7.73086 7.0623C8.45584 7.0623 9.40653 7.28285 10.588 7.71626C11.7661 8.15112 12.5225 8.37167 12.8542 8.37167C13.1021 8.37167 13.9425 8.11379 15.3671 7.59971C16.7143 7.12296 17.8513 6.92555 18.7827 7.0033C21.3067 7.20362 23.203 8.18208 24.4639 9.94489C22.2067 11.2899 21.09 13.1738 21.1123 15.5906C21.1326 17.473 21.8271 19.0395 23.1919 20.2833C23.8102 20.8606 24.5011 21.3068 25.2695 21.6236C25.103 22.0989 24.9269 22.5542 24.7399 22.9912ZM18.9512 0.590214C18.9512 2.06566 18.4031 3.44329 17.3105 4.71841C15.9921 6.23426 14.3973 7.11021 12.6679 6.97199C12.6459 6.79498 12.6331 6.60868 12.6331 6.41291C12.6331 4.99649 13.2601 3.48062 14.3736 2.2412C14.9295 1.61366 15.6365 1.09187 16.4939 0.675622C17.3494 0.265588 18.1587 0.0388312 18.9197 0C18.942 0.197245 18.9512 0.394502 18.9512 0.590194V0.590214Z" fill="black"/>
</svg>
